# xmcd
#
# Track frame offsets:
#	150
#	6464
#	28693
#	50252
#	65805
#	82223
#	99383
#	123270
#	145686
#	162574
#	180490
#	198263
#	224061
#	243868
#	269879
#	284364
#	306553
#	329063
#
# Disc length: 4785 seconds
#
# Revision: 1
# Processed by: cddbd v1.5.1PL0 Copyright (c) Steve Scherf et al.
# Submitted via: audiograbber 1.83.01
#
DISCID=2012af12
DTITLE=Romantic Moonlight - Mystery
DYEAR=2001
DGENRE=Ballad
TTITLE0=Mike Oldfield - In The Beginning
TTITLE1=Mike Oldfield - Let There Be Light
TTITLE2=Oliver Shanti and Friends - Amitabha
TTITLE3=Jan Hammer - Crockett's Theme
TTITLE4=Wisehand - Timeless
TTITLE5=Deep Forest - Sweet Lullaby
TTITLE6=Graig Armstrong - Weather Storm
TTITLE7=Siva Vodjani - Straight To The Heart
TTITLE8=Era - Ameno
TTITLE9=Sarah Brightman - Eden
TTITLE10=Adiemus - Adiemus
TTITLE11=Oliver Shanti and Friends - Sacral Nirvana
TTITLE12=Sacred Spirits - Yeha-Noha
TTITLE13=Yanni - If I Could Tell You
TTITLE14=Oystein Sevag - Tojojo
TTITLE15=Angelo Badalamenti - Fire Walk With Me
TTITLE16=Geoffrey - Oryema Makambo
TTITLE17=Vangelis - Losing Sleep
EXTD=
EXTT0=
EXTT1=
EXTT2=
EXTT3=
EXTT4=
EXTT5=
EXTT6=
EXTT7=
EXTT8=
EXTT9=
EXTT10=
EXTT11=
EXTT12=
EXTT13=
EXTT14=
EXTT15=
EXTT16=
EXTT17=
PLAYORDER=
